<svg width="195" height="195" viewBox="0 0 195 195" fill="none" xmlns="http://www.w3.org/2000/svg">
<g clip-path="url(#clip0_37_4)">
<path d="M193.875 113.121C202.506 59.9447 166.396 9.83977 113.22 1.20811C60.0443 -7.42355 9.93938 28.6867 1.30772 81.8626C-7.32394 135.038 28.7863 185.143 81.9622 193.775C135.138 202.407 185.243 166.296 193.875 113.121Z" fill="#087A87"/>
<path d="M112.476 121.122C109.507 120.685 109.42 112.389 109.42 112.389C109.42 112.389 118.24 103.656 120.161 91.9547C125.313 91.9547 128.457 79.5543 123.305 75.1007C123.479 70.4724 129.942 38.9475 97.4561 38.9475C64.9707 38.9475 71.4328 70.4724 71.6075 75.1007C66.4552 79.467 69.599 91.9547 74.7513 91.9547C76.6724 103.656 85.4924 112.389 85.4924 112.389C85.4924 112.389 85.4924 120.598 82.436 121.122C72.8301 122.694 36.8516 138.5 36.8516 155.965H158.061C158.061 138.587 122.082 122.694 112.476 121.122Z" fill="white"/>
</g>
<defs>
<clipPath id="clip0_37_4">
<rect width="195" height="195" fill="white"/>
</clipPath>
</defs>
</svg>
