<svg width="41" height="43" viewBox="0 0 41 43" fill="none" xmlns="http://www.w3.org/2000/svg">
<g clip-path="url(#clip0_418_188)">
<path d="M15.7784 4.49609L4.51733 15.7045H15.7784V4.49609Z" fill="#087A87"/>
<path d="M39.6749 0H17.1034C16.7537 0 16.4138 0.137286 16.1675 0.387343L0.389163 16.0919C0.142857 16.3371 0 16.6754 0 17.0235V41.6811C0 42.4067 0.591133 43 1.32512 43H39.6749C40.4039 43 41 42.4116 41 41.6811V1.31893C41 0.593273 40.4089 0 39.6749 0ZM15.7783 4.49612V15.7046H4.51724L15.7783 4.49612ZM38.3498 40.3621H2.64532V18.3424H17.1034C17.8325 18.3424 18.4286 17.754 18.4286 17.0235V2.63295H38.3547V40.3621H38.3498Z" fill="#087A87"/>
</g>
<defs>
<clipPath id="clip0_418_188">
<rect width="41" height="43" fill="white"/>
</clipPath>
</defs>
</svg>
